<svg width="86" height="86" viewBox="0 0 86 86" fill="none" xmlns="http://www.w3.org/2000/svg">
<mask id="path-1-inside-1_4_3" fill="white">
<path fill-rule="evenodd" clip-rule="evenodd" d="M3.53553 53.0629C1.58291 55.0156 1.58291 58.1814 3.53553 60.134L25.4558 82.0543C27.4085 84.0069 30.5743 84.0069 32.5269 82.0543L70.4624 44.1189C71.7701 43.217 72.6272 41.7085 72.6272 39.9998L72.6272 18.0998C72.6272 15.3384 70.3887 13.0998 67.6272 13.0998L45.7272 13.0998C44.6022 13.0998 43.564 13.4714 42.7285 14.0985C42.3681 14.3097 42.0285 14.57 41.7193 14.8792L3.53553 53.0629Z"/>
</mask>
<path d="M70.4624 44.1189L68.7593 41.6492L68.5343 41.8043L68.3411 41.9975L70.4624 44.1189ZM72.6272 39.9998L69.6272 39.9998V39.9998H72.6272ZM72.6272 18.0998L75.6272 18.0998L75.6272 18.0998H72.6272ZM67.6272 13.0998L67.6272 10.0998H67.6272L67.6272 13.0998ZM45.7272 13.0998L45.7272 16.0998L45.7272 16.0998L45.7272 13.0998ZM42.7285 14.0985L44.2457 16.6866L44.393 16.6002L44.5295 16.4978L42.7285 14.0985ZM5.65685 58.0127C4.87581 57.2316 4.87581 55.9653 5.65685 55.1843L1.41421 50.9416C-1.70998 54.0658 -1.70998 59.1311 1.41421 62.2553L5.65685 58.0127ZM27.5772 79.933L5.65685 58.0127L1.41421 62.2553L23.3345 84.1756L27.5772 79.933ZM30.4056 79.933C29.6245 80.7141 28.3582 80.7141 27.5772 79.933L23.3345 84.1756C26.4587 87.2998 31.524 87.2998 34.6482 84.1756L30.4056 79.933ZM68.3411 41.9975L30.4056 79.933L34.6482 84.1756L72.5837 46.2402L68.3411 41.9975ZM69.6272 39.9998C69.6272 40.6807 69.2897 41.2833 68.7593 41.6492L72.1655 46.5885C74.2505 45.1507 75.6272 42.7364 75.6272 39.9998H69.6272ZM69.6272 18.0998L69.6272 39.9998L75.6272 39.9998L75.6272 18.0998L69.6272 18.0998ZM67.6272 16.0998C68.7318 16.0998 69.6272 16.9952 69.6272 18.0998H75.6272C75.6272 13.6815 72.0455 10.0998 67.6272 10.0998V16.0998ZM45.7272 16.0998L67.6272 16.0998L67.6272 10.0998L45.7272 10.0998L45.7272 16.0998ZM44.5295 16.4978C44.8634 16.2471 45.2738 16.0998 45.7272 16.0998L45.7272 10.0998C43.9306 10.0998 42.2646 10.6956 40.9276 11.6992L44.5295 16.4978ZM43.8406 17.0005C43.9676 16.8735 44.1038 16.7697 44.2457 16.6866L41.2113 11.5104C40.6324 11.8498 40.0894 12.2664 39.598 12.7579L43.8406 17.0005ZM5.65685 55.1843L43.8406 17.0005L39.598 12.7579L1.41421 50.9416L5.65685 55.1843Z" fill="white" mask="url(#path-1-inside-1_4_3)"/>
<circle cx="58.6899" cy="28.3142" r="5.5" transform="rotate(-45 58.6899 28.3142)" fill="white"/>
</svg>
